
                <svg width="10" height="14" viewBox="0 0 10 14" id="pin">
                  <path
                    fill-rule="evenodd"
                    clip-rule="evenodd"
                    d="M5 14C6.5 14 10 8.5 10 5C10 1.5 7.76142 0 5 0C2.23858 0 0 1.5 0 5C0 8.5 3.5 14 5 14ZM4.99998 7.5C6.38069 7.5 7.49998 6.38071 7.49998 5C7.49998 3.61929 6.38069 2.5 4.99998 2.5C3.61927 2.5 2.49998 3.61929 2.49998 5C2.49998 6.38071 3.61927 7.5 4.99998 7.5Z"
                    fill="#DE6D56"
                  />
                </svg>

                <svg height="30" width="30" viewBox="0 0 48 48"  id="pin">
                <path 
                 fill-rule="evenodd"
                  clip-rule="evenodd"
                  fill="#DE6D56"
                d="M4 40v-4.7q0-1.7.85-3.125T7.4 30q3.6-1.6 6.6-2.3 3-.7 6-.7 1.45 0 3.075.175 1.625.175 3.325.625l-2.45 2.45q-1-.1-1.975-.175Q21 30 20 30q-2.9 0-5.275.525Q12.35 31.05 8.6 32.7q-.85.4-1.225 1.15Q7 34.6 7 35.3V37h15.95l3 3Zm27.25.8-7.05-7.05 2.1-2.1 4.95 4.95L41.9 25.95l2.1 2.1ZM20 23.9q-3.3 0-5.4-2.1-2.1-2.1-2.1-5.4 0-3.3 2.1-5.4 2.1-2.1 5.4-2.1 3.3 0 5.4 2.1 2.1 2.1 2.1 5.4 0 3.3-2.1 5.4-2.1 2.1-5.4 2.1ZM22.95 37ZM20 20.9q1.95 0 3.225-1.275Q24.5 18.35 24.5 16.4q0-1.95-1.275-3.225Q21.95 11.9 20 11.9q-1.95 0-3.225 1.275Q15.5 14.45 15.5 16.4q0 1.95 1.275 3.225Q18.05 20.9 20 20.9Zm0-4.5Z"/></svg>
